<?xml version="1.0" encoding="utf-8"?>
<!-- Generator: Adobe Illustrator 17.0.0, SVG Export Plug-In . SVG Version: 6.00 Build 0)  -->
<!DOCTYPE svg PUBLIC "-//W3C//DTD SVG 1.1//EN" "http://www.w3.org/Graphics/SVG/1.1/DTD/svg11.dtd">
<svg version="1.1" id="Layer_1" xmlns="http://www.w3.org/2000/svg" xmlns:xlink="http://www.w3.org/1999/xlink" x="0px" y="0px"
	 width="48px" height="48px" viewBox="0 0 48 48" enable-background="new 0 0 48 48" xml:space="preserve">
<path fill="#FF00E1" d="M24,12c-4.969,0-9,4.031-9,9s9,15,9,15s9-10.031,9-15S28.969,12,24,12z M24,27c-3.313,0-6-2.687-6-6
	s2.687-6,6-6s6,2.687,6,6S27.313,27,24,27z"/>
<path d="M28.121,18.681h-0.298c-0.218-0.75-0.437-1.481-0.511-1.651c-0.144-0.329-0.6-0.777-3.312-0.777
	c-2.712,0-3.163,0.471-3.326,0.791c-0.062,0.121-0.283,0.866-0.503,1.636h-0.291c-0.599,0-0.674,0.645-0.674,0.82
	c0,0.176,0.084,0.394,0.384,0.394h0.238c-0.105,0.377-0.177,0.636-0.177,0.636c-0.026,0.046-0.046,0.261-0.046,0.318v2.282v0.088
	v1.245c0,0.158,0.126,0.286,0.282,0.286h1.434c0.156,0,0.282-0.128,0.282-0.286v-0.928h4.795v0.928c0,0.158,0.126,0.286,0.282,0.286
	h1.434c0.156,0,0.282-0.128,0.282-0.286v-1.245v-0.088V20.85c0-0.057-0.02-0.272-0.046-0.318c0,0-0.072-0.259-0.179-0.636h0.241
	c0.3,0,0.384-0.218,0.384-0.394C28.796,19.326,28.72,18.681,28.121,18.681z M21.643,21.953h-0.449c-0.401,0-0.802-0.055-0.802-0.317
	v-0.633c0-0.305,0.173-0.317,0.36-0.317c0.182,0,0.544,0.158,0.781,0.267c0.259,0.119,0.887,0.535,0.887,0.732
	C22.419,21.868,21.98,21.953,21.643,21.953z M20.523,19.577c0.27-0.951,0.563-2.136,0.622-2.279
	c0.047-0.104,0.728-0.421,2.856-0.421s2.82,0.363,2.825,0.367c0.073,0.194,0.391,1.455,0.645,2.332c0,0-1.576,0.323-3.471,0.323
	C22.105,19.9,20.523,19.577,20.523,19.577z M25.582,21.686c0-0.198,0.628-0.613,0.887-0.732c0.238-0.109,0.599-0.267,0.781-0.267
	c0.187,0,0.36,0.011,0.36,0.317v0.633h0c0,0.261-0.401,0.317-0.802,0.317h-0.449C26.02,21.953,25.582,21.869,25.582,21.686z"/>
</svg>
